<svg data-v-d3f97b9e="" xmlns="http://www.w3.org/2000/svg" viewBox="0 0 434.5285984126907 163"><!----><!----><!----><g data-v-d3f97b9e="" id="a6ccf642-b962-4b56-87cd-0404a757bc01" fill="#0047AE" transform="matrix(4.285714626312256,0,0,4.285714626312256,-2.7000088691711426,91)"><path d="M9.79 10.39L8.71 10.39C8.38 11.00 7.92 11.50 7.33 11.87C6.74 12.25 6.09 12.43 5.38 12.43C4.33 12.43 3.44 12.04 2.69 11.27C1.97 10.52 1.61 9.61 1.61 8.55C1.61 7.49 1.97 6.58 2.69 5.82C3.04 5.47 3.43 5.19 3.89 4.98C4.35 4.77 4.80 4.66 5.24 4.66C5.67 4.66 6.06 4.71 6.39 4.81C7.41 5.11 8.18 5.73 8.69 6.68L9.77 6.68C9.41 5.77 8.83 5.04 8.04 4.49C7.24 3.93 6.35 3.65 5.38 3.65C4.06 3.65 2.93 4.14 2.00 5.11C1.57 5.56 1.24 6.08 0.99 6.67C0.75 7.26 0.63 7.89 0.63 8.55C0.63 9.89 1.09 11.03 2.00 11.98C2.93 12.95 4.06 13.44 5.38 13.44C6.35 13.44 7.24 13.16 8.05 12.59C8.85 12.03 9.43 11.30 9.79 10.39ZM12.24 13.30L12.24 2.80L11.26 2.80L11.26 13.30ZM19.38 10.19C19.38 10.80 19.16 11.32 18.72 11.76C18.28 12.20 17.75 12.42 17.14 12.42C16.52 12.42 15.99 12.20 15.55 11.76C15.12 11.32 14.90 10.80 14.90 10.19C14.90 9.58 15.12 9.05 15.55 8.61C15.99 8.17 16.52 7.95 17.14 7.95C17.75 7.95 18.28 8.17 18.72 8.61C19.16 9.05 19.38 9.58 19.38 10.19ZM20.36 10.19C20.36 9.31 20.04 8.55 19.41 7.92C18.78 7.29 18.02 6.97 17.14 6.97C16.25 6.97 15.49 7.29 14.86 7.92C14.23 8.55 13.92 9.31 13.92 10.19C13.92 11.08 14.23 11.84 14.86 12.46C15.50 13.09 16.25 13.40 17.14 13.40C18.02 13.40 18.78 13.09 19.41 12.46C20.04 11.84 20.36 11.08 20.36 10.19ZM26.29 12.24L26.29 13.30L27.27 13.30L27.27 7.14L26.29 7.14L26.29 9.72C26.29 10.57 26.13 11.24 25.81 11.72C25.50 12.21 24.96 12.45 24.19 12.45C23.77 12.45 23.47 12.30 23.29 12.02C23.11 11.73 23.02 11.39 23.02 10.99L23.02 7.14L22.04 7.14L22.04 10.99C22.04 11.70 22.23 12.29 22.62 12.74C23.00 13.20 23.54 13.43 24.23 13.43C25.14 13.43 25.83 13.03 26.29 12.24ZM34.06 10.22C34.06 10.82 33.85 11.34 33.44 11.79C33.02 12.24 32.51 12.46 31.89 12.46C31.28 12.46 30.76 12.24 30.35 11.79C29.93 11.34 29.72 10.82 29.72 10.22C29.72 9.62 29.93 9.10 30.35 8.65C30.76 8.20 31.28 7.98 31.89 7.98C32.51 7.98 33.02 8.20 33.44 8.65C33.85 9.10 34.06 9.62 34.06 10.22ZM35.04 13.30L35.04 2.80L34.06 2.80L34.06 8.19C34.01 8.12 33.95 8.05 33.89 7.98C33.31 7.33 32.59 7.00 31.74 7.00C30.89 7.00 30.17 7.33 29.59 7.98C29.02 8.61 28.74 9.36 28.74 10.22C28.74 11.08 29.02 11.83 29.59 12.46C30.17 13.11 30.89 13.44 31.74 13.44C32.59 13.44 33.31 13.11 33.89 12.46C33.95 12.39 34.01 12.32 34.06 12.25L34.06 13.30ZM45.88 10.39L44.80 10.39C44.47 11.00 44.01 11.50 43.42 11.87C42.83 12.25 42.18 12.43 41.47 12.43C40.42 12.43 39.53 12.04 38.79 11.27C38.06 10.52 37.70 9.61 37.70 8.55C37.70 7.49 38.06 6.58 38.79 5.82C39.13 5.47 39.53 5.19 39.98 4.98C40.44 4.77 40.89 4.66 41.33 4.66C41.77 4.66 42.15 4.71 42.48 4.81C43.50 5.11 44.27 5.73 44.79 6.68L45.86 6.68C45.51 5.77 44.93 5.04 44.13 4.49C43.33 3.93 42.44 3.65 41.47 3.65C40.15 3.65 39.02 4.14 38.09 5.11C37.66 5.56 37.33 6.08 37.09 6.67C36.84 7.26 36.72 7.89 36.72 8.55C36.72 9.89 37.18 11.03 38.09 11.98C39.02 12.95 40.15 13.44 41.47 13.44C42.44 13.44 43.33 13.16 44.14 12.59C44.95 12.03 45.52 11.30 45.88 10.39ZM48.33 13.30L48.33 10.72C48.33 9.87 48.48 9.22 48.77 8.77C48.93 8.52 49.14 8.33 49.41 8.20C49.67 8.06 50.01 7.99 50.43 7.99C50.85 7.99 51.15 8.14 51.33 8.42C51.51 8.71 51.60 9.05 51.60 9.45L51.60 13.30L52.58 13.30L52.58 9.45C52.58 8.74 52.40 8.16 52.02 7.72C51.84 7.50 51.61 7.33 51.34 7.20C51.07 7.08 50.71 7.01 50.27 7.01C49.84 7.01 49.45 7.13 49.11 7.36C48.79 7.57 48.53 7.85 48.33 8.20L48.33 2.80L47.35 2.80L47.35 13.30ZM59.37 10.22C59.37 10.82 59.17 11.34 58.75 11.79C58.33 12.24 57.82 12.46 57.20 12.46C56.59 12.46 56.07 12.24 55.66 11.79C55.24 11.34 55.03 10.82 55.03 10.22C55.03 9.62 55.24 9.10 55.66 8.65C56.07 8.20 56.59 7.98 57.20 7.98C57.82 7.98 58.33 8.20 58.75 8.65C59.17 9.10 59.37 9.62 59.37 10.22ZM60.35 13.30L60.35 7.14L59.37 7.14L59.37 8.19C59.32 8.12 59.26 8.05 59.20 7.98C58.62 7.33 57.90 7.00 57.05 7.00C56.20 7.00 55.48 7.33 54.90 7.98C54.34 8.61 54.05 9.36 54.05 10.22C54.05 11.08 54.34 11.83 54.90 12.46C55.48 13.11 56.20 13.44 57.05 13.44C57.90 13.44 58.62 13.11 59.20 12.46C59.26 12.39 59.32 12.32 59.37 12.25L59.37 13.30ZM66.71 13.30L67.69 13.30L67.69 9.45C67.69 8.74 67.50 8.16 67.13 7.72C66.94 7.50 66.71 7.33 66.44 7.20C66.17 7.08 65.82 7.01 65.38 7.01C64.94 7.01 64.55 7.13 64.22 7.36C63.90 7.57 63.64 7.85 63.43 8.20L63.43 7.14L62.45 7.14L62.45 13.30L63.43 13.30L63.43 10.72C63.43 9.94 63.58 9.32 63.88 8.86C64.04 8.60 64.25 8.39 64.51 8.23C64.77 8.07 65.11 7.99 65.53 7.99C65.95 7.99 66.25 8.14 66.44 8.42C66.62 8.71 66.71 9.05 66.71 9.45ZM74.56 10.22C74.56 10.82 74.36 11.34 73.94 11.79C73.52 12.24 73.01 12.46 72.39 12.46C71.79 12.46 71.28 12.24 70.85 11.79C70.43 11.35 70.22 10.83 70.22 10.22C70.22 9.61 70.43 9.09 70.85 8.65C71.28 8.20 71.79 7.98 72.39 7.98C73.01 7.98 73.52 8.20 73.94 8.65C74.36 9.10 74.56 9.62 74.56 10.22ZM70.20 14.14L69.20 14.14C69.30 14.79 69.60 15.37 70.10 15.86C70.72 16.49 71.47 16.80 72.35 16.80C73.23 16.80 73.98 16.49 74.61 15.86C75.23 15.24 75.54 14.49 75.54 13.61L75.54 7.14L74.56 7.14L74.56 8.17C74.52 8.11 74.46 8.05 74.40 7.98C73.79 7.33 73.08 7.00 72.25 7.00C71.40 7.00 70.67 7.33 70.09 7.98C69.53 8.61 69.24 9.36 69.24 10.22C69.24 11.08 69.53 11.83 70.09 12.46C70.67 13.11 71.40 13.44 72.25 13.44C73.10 13.44 73.82 13.11 74.40 12.46C74.46 12.39 74.52 12.33 74.56 12.27L74.56 13.61C74.56 14.21 74.35 14.74 73.91 15.17C73.48 15.60 72.96 15.82 72.35 15.82C71.75 15.82 71.22 15.60 70.79 15.17C70.49 14.87 70.29 14.52 70.20 14.14ZM83.66 10.08C83.66 9.23 83.34 8.50 82.69 7.88C82.05 7.28 81.30 6.97 80.44 6.97C79.56 6.97 78.80 7.29 78.17 7.92C77.54 8.55 77.22 9.31 77.22 10.19C77.22 11.08 77.54 11.84 78.17 12.46C78.46 12.75 78.80 12.98 79.19 13.15C79.58 13.31 80.04 13.40 80.59 13.40C81.14 13.40 81.67 13.23 82.20 12.89C82.73 12.55 83.12 12.08 83.38 11.49L82.26 11.49C82.05 11.78 81.78 12.01 81.46 12.17C81.14 12.34 80.80 12.42 80.44 12.42C79.92 12.42 79.44 12.25 79.02 11.90C78.60 11.56 78.34 11.13 78.25 10.60L83.66 10.60ZM82.63 9.76L78.26 9.76C78.32 9.50 78.41 9.26 78.55 9.04C79.02 8.31 79.65 7.95 80.44 7.95C80.97 7.95 81.43 8.12 81.84 8.46C82.25 8.80 82.52 9.23 82.63 9.76ZM86.25 13.30L86.25 2.80L85.27 2.80L85.27 13.30ZM93.39 10.19C93.39 10.80 93.17 11.32 92.74 11.76C92.30 12.20 91.77 12.42 91.15 12.42C90.54 12.42 90.01 12.20 89.57 11.76C89.13 11.32 88.91 10.80 88.91 10.19C88.91 9.58 89.13 9.05 89.57 8.61C90.01 8.17 90.54 7.95 91.15 7.95C91.77 7.95 92.30 8.17 92.74 8.61C93.17 9.05 93.39 9.58 93.39 10.19ZM94.37 10.19C94.37 9.31 94.06 8.55 93.43 7.92C92.80 7.29 92.04 6.97 91.15 6.97C90.27 6.97 89.51 7.29 88.88 7.92C88.25 8.55 87.93 9.31 87.93 10.19C87.93 11.08 88.25 11.84 88.88 12.46C89.51 13.09 90.27 13.40 91.15 13.40C92.04 13.40 92.79 13.09 93.43 12.46C94.06 11.84 94.37 11.08 94.37 10.19ZM101.04 10.22C101.04 10.82 100.83 11.34 100.41 11.79C100.00 12.24 99.48 12.46 98.87 12.46C98.27 12.46 97.76 12.24 97.33 11.79C96.91 11.35 96.70 10.83 96.70 10.22C96.70 9.61 96.91 9.09 97.33 8.65C97.76 8.20 98.27 7.98 98.87 7.98C99.48 7.98 100.00 8.20 100.41 8.65C100.83 9.10 101.04 9.62 101.04 10.22ZM96.67 14.14L95.67 14.14C95.78 14.79 96.08 15.37 96.57 15.86C97.20 16.49 97.95 16.80 98.83 16.80C99.70 16.80 100.45 16.49 101.08 15.86C101.71 15.24 102.02 14.49 102.02 13.61L102.02 7.14L101.04 7.14L101.04 8.17C100.99 8.11 100.94 8.05 100.88 7.98C100.27 7.33 99.55 7.00 98.73 7.00C97.87 7.00 97.15 7.33 96.56 7.98C96.00 8.61 95.72 9.36 95.72 10.22C95.72 11.08 96.00 11.83 96.56 12.46C97.15 13.11 97.87 13.44 98.73 13.44C99.58 13.44 100.29 13.11 100.88 12.46C100.94 12.39 100.99 12.33 101.04 12.27L101.04 13.61C101.04 14.21 100.82 14.74 100.39 15.17C99.95 15.60 99.43 15.82 98.83 15.82C98.22 15.82 97.70 15.60 97.26 15.17C96.96 14.87 96.76 14.52 96.67 14.14Z"></path></g><linearGradient data-v-d3f97b9e="" gradientTransform="rotate(25)" id="b6125e07-b4f6-4bf0-baa3-115d3ef3c7d3" x1="0%" y1="0%" x2="100%" y2="0%"><stop data-v-d3f97b9e="" offset="0%" style="stop-color: rgb(3, 88, 255); stop-opacity: 1;"></stop><stop data-v-d3f97b9e="" offset="100%" style="stop-color: rgb(6, 254, 192); stop-opacity: 1;"></stop></linearGradient><g data-v-d3f97b9e="" id="d590ed49-a171-4cdc-968d-3b27bb623d89" transform="matrix(4.799232006072998,0,0,4.799232006072998,141.27769470214844,-31.166109085083008)" stroke="none" fill="url(#b6125e07-b4f6-4bf0-baa3-115d3ef3c7d3)"><path d="M8.063 25.377c-3.313 0-6-2.688-6-6a5.985 5.985 0 0 1 4.127-5.688 4.22 4.22 0 0 1 4.216-4.065c.729 0 1.415.189 2.01.517a7.239 7.239 0 0 1 6.208-3.517 7.252 7.252 0 0 1 7.248 7.078 5.994 5.994 0 0 1 4.064 5.667c0 3.312-2.688 6-6 6H8.063v.008zm16.602-9.926a.998.998 0 0 1-.814-1.078c.021-.172.026-.336.026-.498a5.258 5.258 0 0 0-5.251-5.248 5.246 5.246 0 0 0-4.911 3.41 1 1 0 0 1-1.675.32 2.194 2.194 0 0 0-1.633-.73 2.223 2.223 0 0 0-2.22 2.217c0 .137.017.277.045.425.049.267-.008.54-.163.762a.991.991 0 0 1-.657.414c-1.899.312-3.352 1.95-3.35 3.93a4.01 4.01 0 0 0 4.001 4.002h15.875a4.007 4.007 0 0 0 3.998-4.002 3.994 3.994 0 0 0-3.271-3.924"></path></g><!----></svg>